<?xml version="1.0" encoding="UTF-8"?>
<svg width="30px" height="30px" viewBox="0 0 30 30" version="1.1" xmlns="http://www.w3.org/2000/svg" xmlns:xlink="http://www.w3.org/1999/xlink">
    <title>icon_delect</title>
    <g id="3.0" stroke="none" stroke-width="1" fill="none" fill-rule="evenodd">
        <g id="Remint_2" transform="translate(-560.000000, -313.000000)">
            <g id="icon_delect" transform="translate(560.000000, 313.000000)">
                <circle id="椭圆形" stroke="#ECECEC" fill="#FFFFFF" cx="15" cy="15" r="14.5"></circle>
                <g id="icon_close-" transform="translate(15.000000, 15.000000) scale(1, -1) translate(-15.000000, -15.000000) translate(7.000000, 7.000000)">
                    <rect id="矩形" fill="#D8D8D8" opacity="0" x="0" y="0" width="16" height="16"></rect>
                    <path d="M2.62273366,1.27841708 L8,6.656 L13.3772663,1.27841708 C13.7484891,0.907194306 14.3503601,0.907194306 14.7215829,1.27841708 C15.0928057,1.64963985 15.0928057,2.25151089 14.7215829,2.62273366 L9.344,8 L14.7215829,13.3772663 C15.0928057,13.7484891 15.0928057,14.3503601 14.7215829,14.7215829 C14.3503601,15.0928057 13.7484891,15.0928057 13.3772663,14.7215829 L8,9.344 L2.62273366,14.7215829 C2.25151089,15.0928057 1.64963985,15.0928057 1.27841708,14.7215829 C0.907194306,14.3503601 0.907194306,13.7484891 1.27841708,13.3772663 L6.656,8 L1.27841708,2.62273366 C0.907194306,2.25151089 0.907194306,1.64963985 1.27841708,1.27841708 C1.64963985,0.907194306 2.25151089,0.907194306 2.62273366,1.27841708 Z" id="形状结合" fill="#000000"></path>
                </g>
            </g>
        </g>
    </g>
</svg>